<?xml version="1.0" encoding="utf-8"?>
<!-- Generator: Adobe Illustrator 21.1.0, SVG Export Plug-In . SVG Version: 6.00 Build 0)  -->
<svg version="1.1" id="Capa_1" xmlns="http://www.w3.org/2000/svg" xmlns:xlink="http://www.w3.org/1999/xlink" x="0px" y="0px"
	 viewBox="0 0 512 330.6" style="enable-background:new 0 0 512 330.6;" xml:space="preserve">
<g>
	<g>
		<path d="M504.5,243.2h-36c-0.4,0-0.7-0.3-0.7-0.7v-97.7c0-0.4,0.3-0.7,0.7-0.7h36c4.1,0,7.5-3.4,7.5-7.5s-3.4-7.5-7.5-7.5h-36
			c-8.7,0-15.7,7.1-15.7,15.7v1.5h-7.9c-1.4-10.3-7-19.6-15.6-25.7l-33.5-23.7c-3.6-2.5-7.8-3.9-12.2-3.9h-8.3
			c-4.1,0-7.5,3.4-7.5,7.5s3.4,7.5,7.5,7.5h8.3c1.3,0,2.5,0.4,3.6,1.1l33.5,23.7c6,4.2,9.6,11.2,9.6,18.5v21.1
			c0,4.1,3.4,7.5,7.5,7.5s7.5-3.4,7.5-7.5v-11.2h7.5V226h-10.3c-6.7,0-12.2,5.5-12.2,12.2c0,1.3-0.5,2.6-1.5,3.5
			c-0.9,0.9-2.2,1.5-3.5,1.5h-64.6c1.1-2.7,1.6-5.6,1.6-8.7c0-9-5.1-16.9-12.5-20.9c1.9-3.5,3-7.4,3-11.5c0-8.2-4.2-15.5-10.6-19.7
			c5-5.7,8.2-13.1,8.6-21.2c6.6,21.5,26.7,37.1,50.3,37.1c4.1,0,7.5-3.4,7.5-7.5s-3.4-7.5-7.5-7.5c-20.8,0-37.7-16.9-37.7-37.7v-2.8
			c0-7.6-6.2-13.8-13.8-13.8c-3.7,0-7.1,1.4-9.8,4c-2.6,2.6-4,6.1-4,9.8v16.4c0,11.2-9.1,20.2-20.2,20.2c-0.3,0-0.5-0.1-0.6-0.1
			c0,0-0.1,0-0.1-0.1c-0.1,0-0.2-0.1-0.3-0.2c-0.2-0.2-0.4-0.5-0.4-1v-24.5v-32.8c0-7.1,5.8-12.8,12.8-12.8h17.2
			c4.1,0,7.5-3.4,7.5-7.5s-3.4-7.5-7.5-7.5H327c-12.9,0-23.8,8.9-26.9,20.8h-12.5c-6.3,0-12.3,2.5-16.7,6.9
			c-4.5,4.5-6.9,10.4-6.9,16.7c0,5.3,1.7,10.1,4.6,14.1c-0.6,0.5-1.1,1-1.7,1.5c-4.5,4.5-6.9,10.4-6.9,16.7
			c0,9.5,5.6,17.7,13.8,21.5c-1.7,3.3-2.6,7-2.6,10.9c0,9,5.1,16.9,12.5,20.9c-1.9,3.4-3,7.3-3,11.5c0,13,10.6,23.7,23.7,23.7h34.5
			c0,0,0,0,0.1,0h86.6c5.3,0,10.4-2.1,14.1-5.8c3.1-3.1,5.1-7.1,5.7-11.3h7.7v1.5c0,8.7,7.1,15.7,15.7,15.7h36
			c4.1,0,7.5-3.4,7.5-7.5C512,246.6,508.6,243.2,504.5,243.2z M281.4,131.4c1.6-1.6,3.8-2.5,6.1-2.5h11.6v17.3h-11.6
			c-4.8,0-8.7-3.9-8.7-8.7C278.8,135.2,279.7,133,281.4,131.4z M274.9,169.8c0-2.3,0.9-4.5,2.6-6.1c1.6-1.6,3.8-2.5,6.1-2.5h4h11.6
			v17c0,0.1,0,0.3,0,0.4h-4.5h-11.1C278.7,178.5,274.9,174.6,274.9,169.8z M286,202.2c0-2.3,0.9-4.5,2.6-6.1
			c1.6-1.6,3.8-2.5,6.1-2.5h15.1c1.8,0.7,3.8,1.1,5.8,1.1c3,0,5.8-0.4,8.6-1.1h5c4.8,0,8.7,3.9,8.7,8.7c0,2.3-0.9,4.5-2.6,6.1
			c-1.6,1.6-3.8,2.5-6.1,2.5h-34.5C289.9,210.8,286,206.9,286,202.2z M338.7,243.1h-29.2l0,0h-5.3c-4.8,0-8.7-3.9-8.7-8.7
			s3.9-8.7,8.7-8.7h34.5c4.8,0,8.7,3.9,8.7,8.7C347.3,239.3,343.4,243.1,338.7,243.1z"/>
	</g>
</g>
<g>
	<g>
		<path d="M252.1,169.8c0-7.3-3.4-13.9-8.6-18.3c2.9-3.9,4.6-8.8,4.6-14.1c0-13-10.6-23.7-23.7-23.7c-7.6,0-14.3,0-21.9,0
			c-3.1-12-14-20.8-26.9-20.8h-47.2c-4.4,0-8.6,1.3-12.2,3.9l-33.5,23.7c-8.6,6.1-14.2,15.4-15.6,25.7h-7.9v-1.5
			c0-8.7-7.1-15.7-15.7-15.7h-36c-4.1,0-7.5,3.4-7.5,7.5s3.4,7.5,7.5,7.5h36c0.4,0,0.7,0.3,0.7,0.7c0,103.8,0.4,98.5-0.7,98.5h-36
			c-4.1,0-7.5,3.4-7.5,7.5s3.4,7.5,7.5,7.5h36c8.7,0,15.7-7.1,15.7-15.7V241h7.7c1.4,9.7,9.7,17.2,19.8,17.2H109
			c4.1,0,7.5-3.4,7.5-7.5s-3.4-7.5-7.5-7.5H86.7c-2.7,0-5-2.2-5-5c0-6.7-5.5-12.2-12.2-12.2H59.2v-64.7h15c4.1,0,7.5-3.4,7.5-7.5
			v-2.4c0-7.4,3.6-14.3,9.6-18.5l33.5-23.7c1.1-0.7,2.3-1.1,3.6-1.1h47.2c4.5,0,8.4,2.3,10.7,5.8h-22.8c-4.1,0-7.5,3.4-7.5,7.5
			s3.4,7.5,7.5,7.5c23.6,0,38.7,0,60.9,0c4.8,0,8.7,3.9,8.7,8.7s-3.9,8.7-8.7,8.7c-4.1,0-7.5,3.4-7.5,7.5s3.4,7.5,7.5,7.5h4
			c4.8,0,8.7,3.9,8.7,8.7s-3.9,8.7-8.7,8.7h-11.1c-4.1,0-7.5,3.4-7.5,7.5s3.4,7.5,7.5,7.5c4.8,0,8.7,3.9,8.7,8.7s-3.9,8.7-8.7,8.7
			h-9.5c-4.1,0-7.5,3.4-7.5,7.5s3.4,7.5,7.5,7.5c4.8,0,8.7,3.9,8.7,8.7s-3.9,8.7-8.7,8.7h-67.7c-4.1,0-7.5,3.4-7.5,7.5
			s3.4,7.5,7.5,7.5h67.7c13,0,23.7-10.6,23.7-23.7c0-4.2-1.1-8.1-3-11.5c7.4-4,12.5-11.9,12.5-20.9c0-3.9-0.9-7.6-2.6-10.8
			C246.5,187.6,252.1,179.3,252.1,169.8z"/>
	</g>
</g>
<g>
	<g>
		<path d="M256,2.6c-4.1,0-7.5,3.4-7.5,7.5v57.6c0,4.1,3.4,7.5,7.5,7.5s7.5-3.4,7.5-7.5V10.1C263.5,6,260.1,2.6,256,2.6z"/>
	</g>
</g>
<g>
	<g>
		<path d="M227.9,78.6l-28.8-49.9c-2.1-3.6-6.7-4.8-10.2-2.7c-3.6,2.1-4.8,6.7-2.7,10.2L215,86.1c1.4,2.4,3.9,3.8,6.5,3.8
			c1.3,0,2.6-0.3,3.7-1C228.8,86.8,230,82.2,227.9,78.6z"/>
	</g>
</g>
<g>
	<g>
		<path d="M323.1,26c-3.6-2.1-8.2-0.8-10.2,2.7l-28.8,49.9c-2.1,3.6-0.8,8.2,2.7,10.2c1.2,0.7,2.5,1,3.7,1c2.6,0,5.1-1.3,6.5-3.8
			l28.8-49.9C327.9,32.7,326.7,28.1,323.1,26z"/>
	</g>
</g>
</svg>
