<?xml version="1.0" encoding="iso-8859-1"?>
<!-- Generator: Adobe Illustrator 19.0.0, SVG Export Plug-In . SVG Version: 6.00 Build 0)  -->
<svg version="1.1" id="Capa_1" xmlns="http://www.w3.org/2000/svg" xmlns:xlink="http://www.w3.org/1999/xlink" x="0px" y="0px"
	 viewBox="0 0 512 512" style="enable-background:new 0 0 512 512;" xml:space="preserve">
<g>
	<g>
		<path d="M464.527,266.667H334.799c-42.056-0.072-80.935-22.388-102.208-58.667c-25.089-42.853-70.983-69.228-120.64-69.333h-4.085
			c-4.909,0-9.184,3.351-10.357,8.117c-5.081,20.968-6.235,42.697-3.403,64.085L42.81,286.453
			c-3.904,5.79-5.998,12.611-6.015,19.594c-0.047,19.44,15.674,35.238,35.114,35.286h26.485
			c-2.827,26.368-4.629,83.595,30.976,95.456c20.528,5.695,42.047,6.867,63.072,3.435L175.781,498.4
			c-0.273,0.956-0.412,1.945-0.411,2.939c0.003,5.891,4.782,10.664,10.673,10.661h224c0.787,0,1.571-0.087,2.339-0.259
			c5.748-1.29,9.362-6.996,8.072-12.744c-11.52-51.2-0.96-108.363,30.539-165.333c9.486-16.899,17.409-34.63,23.669-52.971
			c0.361-1.087,0.544-2.225,0.543-3.37C475.198,271.433,470.418,266.661,464.527,266.667z M432.346,323.339
			c-31.488,56.907-43.531,114.453-35.2,167.328h-196.96l17.387-61.067c0.507-1.781,0.542-3.663,0.101-5.461
			c-1.403-5.721-7.179-9.222-12.901-7.819c-0.459,0.096-40.128,9.749-68.725,0.224c-20.907-6.976-19.093-59.659-14.933-84.085
			c0.1-0.589,0.151-1.186,0.152-1.784c0.005-5.891-4.767-10.67-10.658-10.675h-38.7c-2.727-0.009-5.39-0.821-7.658-2.335
			c-6.369-4.253-8.083-12.864-3.83-19.233l53.675-79.189c1.614-2.38,2.199-5.311,1.621-8.128
			c-2.675-16.956-2.422-34.244,0.747-51.115c40.435,1.628,77.257,23.74,97.696,58.667c25.089,42.853,70.982,69.228,120.639,69.333
			h114.464C444.349,300.113,438.7,311.915,432.346,323.339z"/>
	</g>
</g>
<g>
	<g>
		<path d="M205.242,243.947l-17.067,12.693c34.461,46.424,88.808,73.862,146.624,74.027v-21.333
			C283.713,309.211,235.685,284.972,205.242,243.947z"/>
	</g>
</g>
<g>
	<g>
		<path d="M377.829,396.789l-20.907-4.171c-6.532,36.661-6.532,74.187,0,110.848l20.907-4.181
			C371.955,465.372,371.955,430.702,377.829,396.789z"/>
	</g>
</g>
<g>
	<g>
		<path d="M335.066,429.248l-20.704-5.173c-0.469,1.867-11.285,46.08,0.235,80.629l20.224-6.741
			C325.295,469.365,334.959,429.643,335.066,429.248z"/>
	</g>
</g>
<g>
	<g>
		<path d="M367.375,74.667c-17.673,0-32,14.327-32,32s14.327,32,32,32c17.673,0,32-14.327,32-32S385.048,74.667,367.375,74.667z
			 M367.375,117.333c-5.891,0-10.667-4.776-10.667-10.667S361.484,96,367.375,96c5.891,0,10.667,4.776,10.667,10.667
			S373.266,117.333,367.375,117.333z"/>
	</g>
</g>
<g>
	<g>
		<rect x="356.709" y="10.667" width="21.333" height="74.67"/>
	</g>
</g>
<g>
	<g>
		<path d="M441.285,113.365L398.618,6.699c-1.623-4.049-5.547-6.702-9.909-6.699h-42.667c-4.374-0.016-8.314,2.639-9.941,6.699
			l-42.667,106.667c-1.297,3.27-0.898,6.97,1.067,9.888l42.667,64c1.979,2.966,5.309,4.747,8.875,4.747h42.667
			c3.554-0.01,6.87-1.79,8.843-4.747l42.667-64C442.182,120.335,442.581,116.636,441.285,113.365z M383.002,170.667h-31.253
			l-36.384-54.581l37.899-94.752h28.224l37.899,94.752L383.002,170.667z"/>
	</g>
</g>
<g>
	<g>
		<path d="M393.477,171.787l-9.675,19.019c10.825,7.424,16.784,20.125,15.573,33.195c0,4.693-0.533,17.611-3.051,52.565
			l21.269,1.536c2.048-28.565,3.115-46.763,3.115-54.101C422.086,202.878,411.586,182.746,393.477,171.787z"/>
	</g>
</g>
<g>
	<g>
		<path d="M350.949,190.805l-4.907-9.472l4.768,9.547l-9.536-19.093c-18.11,10.959-28.61,31.091-27.232,52.213
			c0,7.339,1.067,25.536,3.115,54.101l21.269-1.536c-2.517-34.955-3.051-47.872-3.051-52.565
			C334.165,210.93,340.124,198.229,350.949,190.805z"/>
	</g>
</g>
<g>
	<g>
		<path d="M270.821,103.296l-32-96c-1.45-4.354-5.523-7.293-10.112-7.296h-21.333c-4.589,0.003-8.662,2.942-10.112,7.296l-32,96
			c-0.361,1.084-0.546,2.22-0.547,3.363c-0.004,5.891,4.768,10.67,10.659,10.675h85.333c1.143-0.001,2.278-0.185,3.363-0.547
			C269.66,114.925,272.682,108.885,270.821,103.296z M190.181,96l24.885-74.667h5.952L245.903,96H190.181z"/>
	</g>
</g>
<g>
	<g>
		<rect x="186.039" y="42.667" width="64" height="21.333"/>
	</g>
</g>
<g>
	<g>
		<rect x="207.379" y="106.67" width="21.333" height="96"/>
	</g>
</g>
<g>
	<g>
		<rect x="164.709" y="106.67" width="21.333" height="64"/>
	</g>
</g>
<g>
	<g>
		<rect x="250.039" y="106.67" width="21.333" height="149.33"/>
	</g>
</g>
<g>
	<g>
		<rect x="442.039" y="224" width="32" height="21.333"/>
	</g>
</g>
<g>
	<g>
		<rect x="452.709" y="181.33" width="21.333" height="21.333"/>
	</g>
</g>
<g>
	<g>
		<rect x="452.709" y="138.67" width="21.333" height="21.333"/>
	</g>
</g>
<g>
	<g>
		<rect x="100.709" y="96" width="32" height="21.333"/>
	</g>
</g>
<g>
	<g>
		<rect x="100.709" y="53.33" width="21.333" height="21.333"/>
	</g>
</g>
<g>
	<g>
		<rect x="100.709" y="10.667" width="21.333" height="21.333"/>
	</g>
</g>
<g>
</g>
<g>
</g>
<g>
</g>
<g>
</g>
<g>
</g>
<g>
</g>
<g>
</g>
<g>
</g>
<g>
</g>
<g>
</g>
<g>
</g>
<g>
</g>
<g>
</g>
<g>
</g>
<g>
</g>
</svg>
