<?xml version="1.0" encoding="utf-8"?>
<!-- Generator: Adobe Illustrator 21.1.0, SVG Export Plug-In . SVG Version: 6.00 Build 0)  -->
<svg version="1.1" id="Calque_1" xmlns="http://www.w3.org/2000/svg" xmlns:xlink="http://www.w3.org/1999/xlink" x="0px" y="0px"
	 viewBox="0 0 55.2 56.2" style="enable-background:new 0 0 55.2 56.2;" xml:space="preserve">
<path d="M53.1,16.5H34.7l6.6-6.6c0.7,0.4,1.5,0.6,2.3,0.6c2.8,0,5-2.2,5-5s-2.2-5-5-5c-2.8,0-5,2.2-5,5c0,0.8,0.2,1.6,0.6,2.3
	l-8.7,8.7h-5.7L16,7.7c1.3-2.4,0.4-5.5-2-6.8c-2.4-1.3-5.5-0.4-6.8,2C6.8,3.7,6.6,4.6,6.6,5.4c0,2.8,2.2,5,5,5
	c0.8,0,1.6-0.2,2.3-0.6l6.6,6.6H2.1c-0.8,0-1.5,0.7-1.5,1.5v7c0,0.8,0.7,1.5,1.5,1.5h2.1l5,27.8c0.1,0.7,0.8,1.2,1.5,1.2h33.9
	c0.7,0,1.3-0.5,1.5-1.2l5-27.8h2.1c0.8,0,1.5-0.7,1.5-1.5v-7C54.6,17.1,53.9,16.5,53.1,16.5z M42.2,4c0.8-0.8,2.1-0.7,2.8,0
	c0.4,0.4,0.6,0.9,0.6,1.4c0,1.1-0.9,2-2,2c-1.1,0-2-0.9-2-2C41.6,4.9,41.8,4.4,42.2,4L42.2,4z M9.6,5.4c0-1.1,0.9-2,2-2s2,0.9,2,2
	s-0.9,2-2,2S9.6,6.5,9.6,5.4z M29,20c0.8,0.8,0.8,2,0,2.8s-2,0.8-2.8,0c-0.8-0.8-0.8-2,0-2.8c0.4-0.4,0.9-0.6,1.4-0.6
	C28.1,19.5,28.6,19.7,29,20z M3.6,19.5H23l0,0c-0.1,0.2-0.1,0.4-0.2,0.6c0,0.1-0.1,0.2-0.1,0.3c-0.1,0.7-0.1,1.3,0,2
	c0,0.1,0.1,0.2,0.1,0.3c0.1,0.2,0.1,0.4,0.2,0.6l0,0H3.6V19.5z M43.3,52.5H11.9l-4.7-26H48L43.3,52.5z M51.6,23.4H32.2l0,0
	c0.1-0.2,0.1-0.4,0.2-0.6c0-0.1,0.1-0.2,0.1-0.3c0.1-0.7,0.1-1.3,0-2c0-0.1-0.1-0.2-0.1-0.3c-0.1-0.2-0.1-0.4-0.2-0.6l0,0h19.4V23.4
	z"/>
<path d="M18,47.6c0.8,0,1.5-0.7,1.5-1.5V32.8c0-0.8-0.7-1.5-1.5-1.5s-1.5,0.7-1.5,1.5l0,0v13.2C16.5,46.9,17.2,47.6,18,47.6z"/>
<path d="M27.6,47.6c0.8,0,1.5-0.7,1.5-1.5V32.8c0-0.8-0.7-1.5-1.5-1.5s-1.5,0.7-1.5,1.5l0,0v13.2C26.1,46.9,26.8,47.6,27.6,47.6z"/>
<path d="M37.1,47.6c0.8,0,1.5-0.7,1.5-1.5V32.8c0-0.8-0.7-1.5-1.5-1.5s-1.5,0.7-1.5,1.5l0,0v13.2C35.6,46.9,36.3,47.6,37.1,47.6z"/>
</svg>
