<?xml version="1.0" encoding="iso-8859-1"?>
<!-- Generator: Adobe Illustrator 19.0.0, SVG Export Plug-In . SVG Version: 6.00 Build 0)  -->
<svg version="1.1" id="Capa_1" xmlns="http://www.w3.org/2000/svg" xmlns:xlink="http://www.w3.org/1999/xlink" x="0px" y="0px"
	 viewBox="0 0 512 512" style="enable-background:new 0 0 512 512;" xml:space="preserve">
<g>
	<g>
		<rect x="170.667" y="437.333" width="298.667" height="21.333"/>
	</g>
</g>
<g>
	<g>
		<path d="M469.333,0H96C60.668,0.035,32.035,28.668,32,64v384h21.333V64c0-23.564,19.103-42.667,42.667-42.667h362.667v373.333H480
			v-384C480,4.776,475.224,0,469.333,0z"/>
	</g>
</g>
<g>
	<g>
		<path d="M469.333,384H96c-35.346,0-64,28.654-64,64c0,35.346,28.654,64,64,64h373.333c5.891,0,10.667-4.776,10.667-10.667V394.667
			C480,388.776,475.224,384,469.333,384z M458.667,490.667H96c-23.564,0-42.667-19.102-42.667-42.667
			c0-23.564,19.103-42.667,42.667-42.667h362.667V490.667z"/>
	</g>
</g>
<g>
	<g>
		<rect x="96" y="10.667" width="21.333" height="384"/>
	</g>
</g>
<g>
	<g>
		<path d="M405.333,64H170.667C164.776,64,160,68.776,160,74.667V128h21.333V85.333h213.333V128H416V74.667
			C416,68.776,411.224,64,405.333,64z"/>
	</g>
</g>
<g>
	<g>
		<path d="M394.667,160v32H181.333v-32H160v42.667c0,5.891,4.776,10.667,10.667,10.667h234.667c5.891,0,10.667-4.776,10.667-10.667
			V160H394.667z"/>
	</g>
</g>
<g>
	<g>
		<rect x="160" y="149.333" width="256" height="21.333"/>
	</g>
</g>
<g>
	<g>
		<rect x="160" y="245.333" width="21.333" height="21.333"/>
	</g>
</g>
<g>
	<g>
		<rect x="202.667" y="245.333" width="21.333" height="21.333"/>
	</g>
</g>
<g>
	<g>
		<rect x="288" y="245.333" width="128" height="21.333"/>
	</g>
</g>
<g>
	<g>
		<rect x="128" y="437.333" width="21.333" height="21.333"/>
	</g>
</g>
<g>
</g>
<g>
</g>
<g>
</g>
<g>
</g>
<g>
</g>
<g>
</g>
<g>
</g>
<g>
</g>
<g>
</g>
<g>
</g>
<g>
</g>
<g>
</g>
<g>
</g>
<g>
</g>
<g>
</g>
</svg>
