<?xml version="1.0" encoding="utf-8"?>
<!-- Generator: Adobe Illustrator 21.1.0, SVG Export Plug-In . SVG Version: 6.00 Build 0)  -->
<svg version="1.1" id="Capa_1" xmlns="http://www.w3.org/2000/svg" xmlns:xlink="http://www.w3.org/1999/xlink" x="0px" y="0px"
	 viewBox="0 0 606 512" style="enable-background:new 0 0 606 512;" xml:space="preserve">
<g>
	<g>
		<g>
			<path d="M602.9,79.1l-46.6-46.6c-4.2-4.1-10.9-4.1-15,0l-54.8,54.9c-4.7-12.4-16.5-20.6-29.8-20.7h-21.3v-32H414v32h-42.7v-32
				H350v32h-42.7v-32H286v32h-42.7v-32H222v32h-42.7v-32H158v32h-32c-17.7,0-32,14.3-32,32c0,0.2,0,0.4,0,0.6V450
				c-0.4,17.7,13.7,32.3,31.4,32.6c0.2,0,0.4,0,0.6,0h330.7c17.7,0,32-14.3,32-32c0-0.2,0-0.4,0-0.6v-31.4h20.5
				c3,0.4,6.1,0.7,9.2,0.6c12.7,0.4,25.1-3.6,35.2-11.3c13.5-10.7,20.5-28.9,20.5-53.3V123l28.9-28.9C607,89.9,607,83.2,602.9,79.1z
				 M125.3,88c0.2,0,0.4,0,0.7,0h32v32h21.3V88H222v32h21.3V88H286v32h21.3V88H350v32h21.3V88H414v32h21.3V88h21.3
				c5.9,0,10.7,4.8,10.7,10.6c0,0.2,0,0.4,0,0.7v7.1l-35,34.9h-317v-42C115,93.4,119.5,88.4,125.3,88z M457.3,461.3
				c-0.2,0-0.4,0-0.7,0H126c-5.9,0-10.7-4.8-10.7-10.6c0-0.2,0-0.4,0-0.7V162.7H411l-56,56c-1.4,1.5-2.3,3.3-2.7,5.3l-13,59.1
				c-1.2,5.8,2.4,11.4,8.2,12.7c0.8,0.2,1.6,0.3,2.5,0.2h2.2l59.2-12.6c2-0.4,3.8-1.3,5.3-2.7l50.6-51.1v167.7h-32v-10.7
				c0-5.9-4.8-10.7-10.7-10.7H382c-5.9,0-10.7,4.8-10.7,10.7v42.7c0,5.9,4.8,10.7,10.7,10.7h42.7c5.9,0,10.7-4.8,10.7-10.7v-10.7h32
				V450C467.7,455.9,463.2,461,457.3,461.3z M369,248l18.8,18.8l-23.9,5.1L369,248z M414,397.3v21.3h-21.3v-21.3H414z M409.2,258
				l-31.5-31.4L510,93.9l31.5,31.5L409.2,258z M540.2,391.1c-8.2,5.7-18.2,8-28.1,6.3H510h-21.3v-189l64-64v210.3
				C554.1,368.1,549.5,381.4,540.2,391.1z M556.5,110.3L525,78.8l23.7-23.7l31.5,31.5L556.5,110.3z"/>
			<path d="M296.7,184c-13.5,0-25.6,8.6-30.1,21.3h-46.5c-5.9-16.7-24.2-25.4-40.8-19.5c-16.7,5.9-25.4,24.2-19.5,40.8
				c5.9,16.7,24.2,25.4,40.8,19.5c9.1-3.2,16.3-10.4,19.5-19.5h46.6c5.9,16.7,24.2,25.4,40.8,19.5c16.7-5.9,25.4-24.2,19.5-40.8
				C322.5,192.5,310.3,183.9,296.7,184z M190,226.7c-5.9,0-10.7-4.8-10.7-10.7s4.8-10.7,10.7-10.7s10.7,4.8,10.7,10.7
				C200.7,221.9,195.9,226.7,190,226.7z M296.7,226.7c-5.9,0-10.7-4.8-10.7-10.7s4.8-10.7,10.7-10.7c5.9,0,10.7,4.8,10.7,10.7
				C307.3,221.9,302.6,226.7,296.7,226.7z"/>
			<path d="M200.7,378v-35.9c12.8-4.5,21.3-16.6,21.3-30.1c0.1-17.7-14.2-32-31.9-32.1s-32,14.2-32.1,31.9
				c0,13.6,8.5,25.7,21.3,30.3V378c-16.7,5.9-25.4,24.2-19.5,40.8c5.9,16.7,24.2,25.4,40.8,19.5c16.7-5.9,25.4-24.2,19.5-40.8
				C217,388.4,209.8,381.3,200.7,378z M190,301.3c5.9,0,10.7,4.8,10.7,10.7s-4.8,10.7-10.7,10.7s-10.7-4.8-10.7-10.7
				S184.1,301.3,190,301.3z M190,418.7c-5.9,0-10.7-4.8-10.7-10.7s4.8-10.7,10.7-10.7s10.7,4.8,10.7,10.7
				C200.7,413.9,195.9,418.7,190,418.7z"/>
			<path d="M296.7,280c-17.7,0-32,14.3-32,32s14.3,32,32,32s32-14.3,32-32S314.3,280,296.7,280z M296.7,322.7
				c-5.9,0-10.7-4.8-10.7-10.7s4.8-10.7,10.7-10.7c5.9,0,10.7,4.8,10.7,10.7C307.3,317.9,302.6,322.7,296.7,322.7z"/>
			<path d="M296.7,376c-17.7,0-32,14.3-32,32s14.3,32,32,32s32-14.3,32-32S314.3,376,296.7,376z M296.7,418.7
				c-5.9,0-10.7-4.8-10.7-10.7s4.8-10.7,10.7-10.7c5.9,0,10.7,4.8,10.7,10.7C307.3,413.9,302.6,418.7,296.7,418.7z"/>
		</g>
	</g>
</g>
</svg>
