<?xml version="1.0" encoding="utf-8"?>
<!-- Generator: Adobe Illustrator 21.1.0, SVG Export Plug-In . SVG Version: 6.00 Build 0)  -->
<svg version="1.1" id="Capa_1" xmlns="http://www.w3.org/2000/svg" xmlns:xlink="http://www.w3.org/1999/xlink" x="0px" y="0px"
	 viewBox="0 0 517 459" style="enable-background:new 0 0 517 459;" xml:space="preserve">
<g>
	<g>
		<g>
			<path d="M510.9,51.5L464.3,4.9c-4.2-4.1-10.9-4.1-15,0l-54.8,54.9c-4.7-12.4-16.5-20.6-29.8-20.7h-21.3v-32H322v32h-42.7v-32H258
				v32h-42.7v-32H194v32h-42.7v-32H130v32H87.3v-32H66v32H34c-17.7,0-32,14.3-32,32c0,0.2,0,0.4,0,0.6v350.7
				c-0.4,17.7,13.7,32.3,31.4,32.6c0.2,0,0.4,0,0.6,0h330.7c17.7,0,32-14.3,32-32c0-0.2,0-0.4,0-0.6v-31.4h20.5
				c3,0.4,6.1,0.7,9.2,0.6c12.7,0.4,25.1-3.6,35.2-11.3c13.5-10.7,20.5-28.9,20.5-53.3V95.4l28.9-28.9C515,62.4,515,55.6,510.9,51.5
				z M33.3,60.5c0.2,0,0.4,0,0.7,0h32v32h21.3v-32H130v32h21.3v-32H194v32h21.3v-32H258v32h21.3v-32H322v32h21.3v-32h21.3
				c5.9,0,10.7,4.8,10.7,10.6c0,0.2,0,0.4,0,0.7v7.1l-35,34.9h-317v-42C23,65.9,27.5,60.8,33.3,60.5z M365.3,433.7
				c-0.2,0-0.4,0-0.7,0H34c-5.9,0-10.7-4.8-10.7-10.6c0-0.2,0-0.4,0-0.7V135.1H319l-56,56c-1.4,1.5-2.3,3.3-2.7,5.3l-13,59.1
				c-1.2,5.8,2.4,11.4,8.2,12.7c0.8,0.2,1.6,0.3,2.5,0.2h2.2l59.2-12.6c2-0.4,3.8-1.3,5.3-2.7l50.6-51.1v167.7h-32v-10.7
				c0-5.9-4.8-10.7-10.7-10.7H290c-5.9,0-10.7,4.8-10.7,10.7v42.7c0,5.9,4.8,10.7,10.7,10.7h42.7c5.9,0,10.7-4.8,10.7-10.7v-10.7h32
				v31.4C375.7,428.3,371.2,433.4,365.3,433.7z M277,220.4l18.8,18.8l-23.9,5.1L277,220.4z M322,369.8v21.3h-21.3v-21.3H322z
				 M317.2,230.5l-31.5-31.4L418,66.3l31.5,31.5L317.2,230.5z M448.2,363.5c-8.2,5.7-18.2,8-28.1,6.3H418h-21.3v-189l64-64v210.3
				C462.1,340.5,457.5,353.8,448.2,363.5z M464.5,82.7L433,51.3l23.7-23.7L488.2,59L464.5,82.7z"/>
			<path d="M204.7,156.4c-13.5,0-25.6,8.6-30.1,21.3h-46.5c-5.9-16.7-24.2-25.4-40.8-19.5c-16.7,5.9-25.4,24.2-19.5,40.8
				s24.2,25.4,40.8,19.5c9.1-3.2,16.3-10.4,19.5-19.5h46.6c5.9,16.7,24.2,25.4,40.8,19.5c16.7-5.9,25.4-24.2,19.5-40.8
				C230.5,164.9,218.3,156.3,204.7,156.4z M98,199.1c-5.9,0-10.7-4.8-10.7-10.7s4.8-10.7,10.7-10.7s10.7,4.8,10.7,10.7
				C108.7,194.3,103.9,199.1,98,199.1z M204.7,199.1c-5.9,0-10.7-4.8-10.7-10.7s4.8-10.7,10.7-10.7c5.9,0,10.7,4.8,10.7,10.7
				C215.3,194.3,210.6,199.1,204.7,199.1z"/>
			<path d="M108.7,350.5v-35.9C121.4,310,130,298,130,284.4c0.1-17.7-14.2-32-31.9-32.1s-32,14.2-32.1,31.9
				c0,13.6,8.5,25.7,21.3,30.3v35.9c-16.7,5.9-25.4,24.2-19.5,40.8c5.9,16.7,24.2,25.4,40.8,19.5c16.7-5.9,25.4-24.2,19.5-40.8
				C125,360.8,117.8,353.7,108.7,350.5z M98,273.8c5.9,0,10.7,4.8,10.7,10.7s-4.8,10.7-10.7,10.7s-10.7-4.8-10.7-10.7
				C87.3,278.5,92.1,273.8,98,273.8z M98,391.1c-5.9,0-10.7-4.8-10.7-10.7s4.8-10.7,10.7-10.7s10.7,4.8,10.7,10.7
				C108.7,386.3,103.9,391.1,98,391.1z"/>
			<path d="M204.7,252.4c-17.7,0-32,14.3-32,32s14.3,32,32,32s32-14.3,32-32S222.3,252.4,204.7,252.4z M204.7,295.1
				c-5.9,0-10.7-4.8-10.7-10.7s4.8-10.7,10.7-10.7c5.9,0,10.7,4.8,10.7,10.7C215.3,290.3,210.6,295.1,204.7,295.1z"/>
			<path d="M204.7,348.4c-17.7,0-32,14.3-32,32s14.3,32,32,32s32-14.3,32-32S222.3,348.4,204.7,348.4z M204.7,391.1
				c-5.9,0-10.7-4.8-10.7-10.7s4.8-10.7,10.7-10.7c5.9,0,10.7,4.8,10.7,10.7C215.3,386.3,210.6,391.1,204.7,391.1z"/>
		</g>
	</g>
</g>
</svg>
