<?xml version="1.0" encoding="utf-8"?>
<!-- Generator: Adobe Illustrator 21.1.0, SVG Export Plug-In . SVG Version: 6.00 Build 0)  -->
<svg version="1.1" id="Calque_1" xmlns="http://www.w3.org/2000/svg" xmlns:xlink="http://www.w3.org/1999/xlink" x="0px" y="0px"
	 viewBox="0 0 97.8 97.3" style="enable-background:new 0 0 97.8 97.3;" xml:space="preserve">
<style type="text/css">
	.st0{display:none;}
</style>
<g>
	<path d="M32.8,61.5c-2.7,1.9-6.1,2.4-9.2,1.4L3.3,83.2c-3,3-3,7.9,0,10.9s7.9,3,10.9,0l20.3-20.3c-1-3-0.6-6.5,1.4-9.2
		c14.3,12.7,36.2,12.2,49.9-1.5c14.2-14.2,14.2-37.3,0-51.4c-14.2-14.2-37.3-14.2-51.4,0C20.7,25.3,20.2,47.2,32.8,61.5z M32.3,37.4
		C32.3,22.1,44.7,9.6,60,9.6s27.8,12.5,27.8,27.8S75.3,65.2,60,65.2C44.7,65.1,32.3,52.7,32.3,37.4z"/>
	<path class="st0" d="M60,14.2c1.8,0,3.3,1.5,3.3,3.3s-1.5,3.3-3.3,3.3c-9.1,0-16.5,7.4-16.5,16.5c0,1.8-1.5,3.3-3.3,3.3
		s-3.3-1.5-3.3-3.3C36.9,24.6,47.3,14.2,60,14.2z"/>
</g>
<g>
	<path d="M59.6,38.2c4.9,0,8.9-4,8.9-8.9s-4-8.9-8.9-8.9s-8.9,4-8.9,8.9S54.7,38.2,59.6,38.2z M67.5,40.2h-3.4c-1.4,0.6-2.9,1-4.5,1
		c-1.6,0-3.1-0.4-4.5-1h-3.4c-4.4,0-7.9,3.5-7.9,7.9v1c0,1.6,1.3,3,3,3h25.7c1.6,0,3-1.3,3-3v-1C75.5,43.8,71.9,40.2,67.5,40.2z"/>
</g>
</svg>
