<?xml version="1.0" encoding="iso-8859-1"?>
<!-- Generator: Adobe Illustrator 19.0.0, SVG Export Plug-In . SVG Version: 6.00 Build 0)  -->
<svg version="1.1" id="Capa_1" xmlns="http://www.w3.org/2000/svg" xmlns:xlink="http://www.w3.org/1999/xlink" x="0px" y="0px"
	 viewBox="0 0 512.003 512.003" style="enable-background:new 0 0 512.003 512.003;" xml:space="preserve">
<g>
	<g>
		<path d="M202.67,309.335c-29.455,0-53.333,23.878-53.333,53.333s23.878,53.333,53.333,53.333
			c29.441-0.035,53.298-23.893,53.333-53.333C256.003,333.213,232.125,309.335,202.67,309.335z M202.67,394.668
			c-17.673,0-32-14.327-32-32s14.327-32,32-32c17.673,0,32,14.327,32,32S220.343,394.668,202.67,394.668z"/>
	</g>
</g>
<g>
	<g>
		<path d="M192.003,405.335v48c0,20.619-16.715,37.333-37.333,37.333c-20.619,0-37.333-16.715-37.333-37.333V298.668H96.003v154.667
			c0.035,32.386,26.281,58.631,58.667,58.667c32.386-0.035,58.631-26.281,58.667-58.667v-48H192.003z"/>
	</g>
</g>
<g>
	<g>
		<path d="M42.67,106.668c-17.673,0-32,14.327-32,32c0,17.673,14.327,32,32,32c17.673,0,32-14.327,32-32
			C74.67,120.995,60.343,106.668,42.67,106.668z M42.67,149.335c-5.891,0-10.667-4.776-10.667-10.667s4.776-10.667,10.667-10.667
			c5.891,0,10.667,4.776,10.667,10.667S48.561,149.335,42.67,149.335z"/>
	</g>
</g>
<g>
	<g>
		<path d="M170.67,106.668c-17.673,0-32,14.327-32,32c0,17.673,14.327,32,32,32c17.673,0,32-14.327,32-32
			C202.67,120.995,188.343,106.668,170.67,106.668z M170.67,149.335c-5.891,0-10.667-4.776-10.667-10.667
			s4.776-10.667,10.667-10.667c5.891,0,10.667,4.776,10.667,10.667S176.561,149.335,170.67,149.335z"/>
	</g>
</g>
<g>
	<g>
		<path d="M191.416,141.399l-14.251,15.872c1.821,1.533,3.507,3.219,5.04,5.04c14.828,17.611,12.571,43.908-5.04,58.736
			l-70.496,63.285l-70.496-63.285c-1.821-1.533-3.507-3.219-5.04-5.04c-14.828-17.611-12.571-43.908,5.04-58.736l-14.251-15.872
			c-2.397,2.061-4.635,4.299-6.695,6.695c-22.679,26.377-19.682,66.145,6.695,88.825l77.621,69.685
			c1.957,1.758,4.495,2.73,7.125,2.731c2.631,0,5.168-0.973,7.125-2.731l77.621-69.685c2.397-2.061,4.635-4.299,6.695-6.695
			C220.791,203.846,217.794,164.078,191.416,141.399z"/>
	</g>
</g>
<g>
	<g>
		<rect x="192.003" y="352.002" width="21.333" height="21.333"/>
	</g>
</g>
<g>
	<g>
		<path d="M480.003,42.668h-288c-17.673,0-32,14.327-32,32v10.667h21.333V74.668c0-5.891,4.776-10.667,10.667-10.667h288
			c5.891,0,10.667,4.776,10.667,10.667v256c0,5.891-4.776,10.667-10.667,10.667H277.336v21.333h202.667c17.673,0,32-14.327,32-32
			v-256C512.003,56.995,497.676,42.668,480.003,42.668z"/>
	</g>
</g>
<g>
	<g>
		<path d="M469.337,288.002c-17.673,0-32,14.327-32,32v32h21.333v-32c0-5.891,4.776-10.667,10.667-10.667h32v-21.333H469.337z"/>
	</g>
</g>
<g>
	<g>
		<path d="M469.337,96.002c-5.891,0-10.667-4.776-10.667-10.667v-32h-21.333v32c0,17.673,14.327,32,32,32h32V96.002H469.337z"/>
	</g>
</g>
<g>
	<g>
		<path d="M362.67,0.002h-64c-17.673,0-32,14.327-32,32v21.333h21.333V32.002c0-5.891,4.776-10.667,10.667-10.667h64
			c5.891,0,10.667,4.776,10.667,10.667v21.333h21.333V32.002C394.67,14.328,380.343,0.002,362.67,0.002z"/>
	</g>
</g>
<g>
	<g>
		<path d="M390.883,130.188c-16.76-14.705-41.105-16.887-60.213-5.397c-19.095-11.507-43.438-9.351-60.213,5.333
			c-1.321,1.167-2.569,2.415-3.736,3.736c-15.636,17.7-13.964,44.724,3.736,60.36l53.024,48.331c1.966,1.792,4.53,2.785,7.189,2.784
			c2.651,0.018,5.214-0.951,7.189-2.72l53.024-48.331c1.321-1.167,2.569-2.415,3.736-3.736
			C410.255,172.849,408.583,145.825,390.883,130.188z M376.536,178.455l-45.867,41.781l-45.835-41.781
			c-0.843-0.722-1.629-1.508-2.351-2.351c-7.694-8.993-6.642-22.52,2.351-30.214c5.314-4.745,12.204-7.342,19.328-7.285h0
			c7.133-0.062,14.033,2.54,19.349,7.296c4.073,3.716,10.306,3.716,14.379,0c11.053-9.708,27.593-9.708,38.645,0
			c0.845,0.723,1.633,1.511,2.356,2.356C386.581,157.246,385.526,170.766,376.536,178.455z"/>
	</g>
</g>
<g>
	<g>
		<rect x="277.336" y="266.668" width="106.667" height="21.333"/>
	</g>
</g>
<g>
</g>
<g>
</g>
<g>
</g>
<g>
</g>
<g>
</g>
<g>
</g>
<g>
</g>
<g>
</g>
<g>
</g>
<g>
</g>
<g>
</g>
<g>
</g>
<g>
</g>
<g>
</g>
<g>
</g>
</svg>
