<?xml version="1.0" encoding="iso-8859-1"?>
<!-- Generator: Adobe Illustrator 19.0.0, SVG Export Plug-In . SVG Version: 6.00 Build 0)  -->
<svg version="1.1" id="Layer_1" xmlns="http://www.w3.org/2000/svg" xmlns:xlink="http://www.w3.org/1999/xlink" x="0px" y="0px"
	 viewBox="0 0 512.005 512.005" style="enable-background:new 0 0 512.005 512.005;" xml:space="preserve">
<g>
	<g>
		<path d="M498.867,64.258l-176-32c-0.448-0.08-0.864,0.096-1.312,0.048c-0.544-0.048-1.008-0.304-1.552-0.304h-128
			c-0.544,0-1.008,0.256-1.536,0.304c-0.448,0.048-0.88-0.128-1.328-0.048l-176,32C4.675,65.794-1.053,73.747,0.163,82.274l16,112
			c1.136,7.872,7.872,13.728,15.84,13.728h64v256c0,8.832,7.168,16,16,16h288c8.832,0,16-7.168,16-16v-256h64
			c7.968,0,14.704-5.856,15.84-13.728l16-112C513.059,73.747,507.315,65.794,498.867,64.258z M96.003,176.003H45.875L34.019,92.995
			l61.984-11.28V176.003z M300.659,64.003c-6.016,14.704-19.664,27.904-36.608,31.184c-2.624,0.448-5.296,0.816-8.048,0.816
			s-5.424-0.368-8.064-0.816c-16.944-3.28-30.592-16.48-36.608-31.184H300.659z M384.003,192.003v256h-256v-256V75.906l50.224-9.136
			c8.464,35.088,40.128,61.232,77.776,61.232s69.312-26.144,77.776-61.232l50.224,9.136V192.003z M466.131,176.003h-50.128V81.714
			l61.984,11.264L466.131,176.003z"/>
	</g>
</g>
<g>
</g>
<g>
</g>
<g>
</g>
<g>
</g>
<g>
</g>
<g>
</g>
<g>
</g>
<g>
</g>
<g>
</g>
<g>
</g>
<g>
</g>
<g>
</g>
<g>
</g>
<g>
</g>
<g>
</g>
</svg>
