<svg width="411" height="532" viewBox="0 0 411 532" fill="none" xmlns="http://www.w3.org/2000/svg">
<g class="fist">
 <rect width="404.721" height="638.247" fill="black" fill-opacity="0" transform="translate(405.697 531.766) rotate(-179.568)"/>
<path d="M6.59285 472.027L7.89296 299.648L24.061 299.77L24.532 237.325C24.8708 192.403 52.2381 153.916 91.0419 137.132L92.8362 -100.769L323.351 -99.0299L321.599 133.179C368.611 145.994 403.101 189.226 402.717 240.178L401.281 430.526L357.836 430.199L357.257 507.012L271.352 506.364L271.231 522.532L158.819 521.684L158.941 505.516L78.0976 504.906L78.3415 472.568L6.59285 472.027Z" fill="#79C697"/>
<rect width="381.258" height="614.67" fill="black" fill-opacity="0" transform="translate(390.106 516.086) rotate(-179.568)"/>
<path d="M209.445 417.683L390.838 419.051L391.01 396.211L209.617 394.843L209.445 417.683Z" fill="#79C697"/>
<path d="M87.5253 498.49L171.153 499.121L171.315 477.672L87.6871 477.041L87.5253 498.49Z" fill="#79C697"/>
<path d="M9.20989 466.666L92.8379 467.297L92.9997 445.848L9.37166 445.217L9.20989 466.666Z" fill="#79C697"/>
<path d="M173.556 514.451L257.184 515.082L257.345 493.633L173.717 493.002L173.556 514.451Z" fill="#79C697"/>
<path d="M261.361 500.537L344.989 501.168L345.151 479.719L261.523 479.088L261.361 500.537Z" fill="#79C697"/>
<path d="M91.0738 134.523L92.849 -100.843L323.362 -99.1045L321.655 127.293L133.555 125.875L91.0738 134.523Z" fill="#79C697"/>
<path d="M91.3802 92.7684L92.8395 -100.718L264.417 -99.4239L263.554 15.0383C263.225 58.6823 227.578 93.7957 183.934 93.4665L91.3802 92.7684Z" fill="#79C697"/>
<path d="M304.819 281.434C304.819 281.434 239.21 273.209 206.545 243.056C206.545 243.056 139.493 269.415 31.0634 263.528L30.769 302.557L262.402 304.304L262.089 345.865L301.623 346.163L304.819 281.434Z" fill="#79C697"/>
<rect width="350.79" height="219.581" fill="black" fill-opacity="0" transform="translate(361.64 489.898) rotate(-179.568)"/>
<path d="M92.9199 306.171L137.196 306.505L136.262 430.434C136.077 454.887 116.104 474.561 91.6513 474.377L92.9199 306.171Z" fill="#79C697"/>
<path d="M12.2431 303.88L11.1805 444.76C35.6328 444.944 55.6066 425.269 55.791 400.817L56.5196 304.214L12.2431 303.88Z" fill="#79C697"/>
<path d="M180.42 488.533C204.872 488.718 224.846 469.043 225.03 444.59L225.207 421.127L209.547 421.009L210.116 345.541L225.776 345.659L226.168 293.761L174.81 293.374L173.339 488.48L180.42 488.533Z" fill="#79C697"/>
<path d="M267.808 418.186L267.37 476.242L274.451 476.295C298.903 476.479 318.877 456.805 319.061 432.352L319.165 418.573L267.808 418.186Z" fill="#79C697"/>
<path d="M204.457 382.418L313.931 383.243C340.722 383.446 362.605 361.89 362.807 335.098L363.296 270.322L320.287 269.998L296.978 287.208L296.546 344.564L202.819 343.858L204.457 382.418Z" fill="#79C697"/>
<path d="M74.7448 512.675L157.709 513.301L157.584 529.894L272.956 530.764L273.081 514.171L361.229 514.836L361.823 436.02L406.417 436.356L407.89 241.01C408.285 188.717 372.879 144.356 324.647 131.206L326.444 -107.098L89.8672 -108.882L88.0258 135.256C48.203 152.481 20.1218 191.985 19.7741 238.086L19.3743 291.094L2.78124 290.969L1.36358 478.933L74.9951 479.489L74.7448 512.675ZM97.996 489.774L98.0723 479.663L99.3159 314.771L159.204 315.223L157.884 490.225L97.996 489.774ZM251.362 334.326L194.323 333.896L193.563 434.751L250.601 435.181L250.056 507.515L180.835 506.993L182.28 315.398L251.501 315.92L251.362 334.326ZM338.329 491.586L273.256 491.095L273.677 435.355L338.749 435.846L338.329 491.586ZM42.8514 238.259C43.225 188.716 83.8336 148.717 133.374 149.091L133.548 126.015C125.89 125.957 118.404 126.674 111.16 128.08L112.772 -85.6304L303.197 -84.1941L301.601 127.429C299.688 127.318 297.762 127.253 295.824 127.239L282.094 127.135L282.007 138.674L282.007 138.675L281.92 150.213L283.346 150.223L295.65 150.316C345.191 150.69 385.191 191.299 384.818 240.839L383.518 413.106L362 412.944L250.775 412.105L216.814 411.849L217.227 357.146L309.524 357.842L310.018 292.36C313.93 292.672 317.408 292.872 320.312 292.993L321.28 269.938C315.029 269.675 306.566 269.084 296.985 267.801C281.416 265.715 262.879 261.791 246.013 254.429C214.432 240.648 199.186 219.876 199.405 190.924L176.329 190.75C176.188 209.475 180.963 224.767 188.893 237.279C164.281 245.564 138.134 247.574 123.175 247.976L123.795 271.044C141.899 270.557 175.008 267.878 205.033 255.925C228.073 276.019 260.775 285.297 286.962 289.568L286.623 334.592L274.439 334.5L274.752 293.019L182.455 292.322L159.38 292.148L99.4915 291.697L76.4158 291.523L42.4547 291.267L42.8514 238.259ZM24.6148 456.032L25.6844 314.216L76.2387 314.597L75.1691 456.413L24.6148 456.032Z" fill="white"/>
</g>
</svg>
