
<svg width="408" height="640" viewBox="0 0 408 640" fill="none" xmlns="http://www.w3.org/2000/svg">
  <g class="fist">
    <rect width="404.721" height="638.247" fill="black" fill-opacity="0" transform="translate(0 1.49609) rotate(-0.21193)"/>
    <path d="M399.751 56.744L400.389 229.127L384.22 229.187L384.451 291.633C384.617 336.556 357.684 375.348 319.072 392.567L319.952 630.473L89.4324 631.326L88.5734 399.112C41.4204 386.826 6.44646 343.984 6.25799 293.032L5.5539 102.679L49 102.518L48.7159 25.7032L134.622 25.3855L134.562 9.21685L246.976 8.80105L247.036 24.9697L327.881 24.6706L328.001 57.0094L399.751 56.744V56.744Z" fill="#79C697"/>
    <rect width="381.258" height="614.67" fill="black" fill-opacity="0" transform="translate(15.7656 17) rotate(-0.21193)"/>
    <path d="M197.522 113.364L16.125 114.035L16.2095 136.876L197.606 136.205L197.522 113.364Z" fill="#79C697"/>
    <path d="M318.525 31.1946L234.896 31.5039L234.975 52.9537L318.605 52.6444L318.525 31.1946Z" fill="#79C697"/>
    <path d="M397.193 62.1321L313.563 62.4414L313.643 83.8912L397.273 83.5819L397.193 62.1321Z" fill="#79C697"/>
    <path d="M232.321 16.1985L148.691 16.5078L148.771 37.9576L232.401 37.6483L232.321 16.1985Z" fill="#79C697"/>
    <path d="M144.678 31.1008L61.0479 31.4102L61.1272 52.86L144.757 52.5506L144.678 31.1008Z" fill="#79C697"/>
    <path d="M319.068 395.179L319.939 630.55L89.4204 631.403L88.583 405L276.686 404.304L319.068 395.179Z" fill="#79C697"/>
    <path d="M319.232 436.932L319.948 630.422L148.366 631.057L147.943 516.592C147.781 472.947 183.031 437.436 226.676 437.274L319.232 436.932Z" fill="#79C697"/>
    <path d="M103.686 250.677C103.686 250.677 169.384 258.163 202.386 287.948C202.386 287.948 269.137 260.837 377.626 265.504L377.481 226.475L145.843 227.332L145.689 185.77L106.154 185.916L103.686 250.677Z" fill="#79C697"/>
    <rect width="350.79" height="219.581" fill="black" fill-opacity="0" transform="translate(44.5254 42.8672) rotate(-0.21193)"/>
    <path d="M315.293 223.561L271.016 223.725L270.557 99.7933C270.467 75.3404 290.218 55.4423 314.671 55.3518L315.293 223.561Z" fill="#79C697"/>
    <path d="M395.991 224.946L395.47 84.0628C371.017 84.1532 351.266 104.051 351.356 128.504L351.713 225.11L395.991 224.946Z" fill="#79C697"/>
    <path d="M225.749 42.1956C201.296 42.286 181.545 62.1842 181.635 86.637L181.722 110.101L197.383 110.043L197.662 185.512L182.001 185.57L182.193 237.47L233.552 237.28L232.83 42.1694L225.749 42.1956Z" fill="#79C697"/>
    <path d="M139.157 113.52L138.942 55.4624L131.861 55.4886C107.409 55.579 87.6573 75.4771 87.7478 99.93L87.7987 113.71L139.157 113.52V113.52Z" fill="#79C697"/>
    <path d="M202.907 148.572L93.4306 148.977C66.6389 149.076 44.9993 170.876 45.0984 197.668L45.338 262.446L88.3482 262.287L111.462 244.815L111.249 187.458L204.978 187.111L202.907 148.572Z" fill="#79C697"/>
    <path d="M331.146 16.865L248.18 17.1719L248.119 0.578328L132.745 1.00509L132.806 17.5987L44.6559 17.9247L44.9474 96.7428L0.352917 96.9078L1.0755 292.258C1.26893 344.552 37.1705 388.512 85.5482 401.119L86.4296 639.428L323.011 638.553L322.108 394.41C361.735 376.738 389.37 336.922 389.2 290.819L389.004 237.81L405.597 237.749L404.902 49.7799L331.269 50.0523L331.146 16.865V16.865ZM308.154 40.0268L308.191 50.1376L308.801 215.033L248.912 215.255L248.264 40.2483L308.154 40.0268ZM156.545 197.188L213.585 196.977L213.212 96.1204L156.172 96.3314L155.904 23.9961L225.127 23.74L225.835 215.338L156.613 215.594L156.545 197.188V197.188ZM67.8159 40.9157L132.89 40.675L133.096 96.4168L68.0221 96.6575L67.8159 40.9157ZM366.122 290.906C366.305 340.449 326.149 380.903 276.608 381.086L276.693 404.162C284.351 404.134 291.829 403.333 299.056 401.845L299.847 615.56L109.417 616.265L108.635 404.637C110.549 404.727 112.476 404.77 114.413 404.762L128.144 404.712L128.101 393.173L128.101 393.171L128.059 381.634L126.632 381.639L114.328 381.685C64.7864 381.868 24.3318 341.711 24.1485 292.169L23.5113 119.899L45.0297 119.819L156.257 119.408L190.219 119.282L190.422 173.986L98.1217 174.328L98.364 239.812C94.4489 239.543 90.9686 239.383 88.0636 239.293L87.3552 262.359C93.609 262.551 102.078 263.046 111.673 264.222C127.264 266.133 145.844 269.849 162.792 277.02C194.526 290.445 210.004 311.044 210.111 339.997L233.187 339.912C233.118 321.187 228.171 305.949 220.101 293.527C244.618 284.966 270.741 282.662 285.695 282.092L284.816 259.033C266.718 259.723 233.641 262.774 203.752 275.064C180.488 255.23 147.683 246.32 121.45 242.343L121.283 197.319L133.467 197.274L133.621 238.756L225.919 238.415L248.995 238.329L308.885 238.108L331.961 238.023L365.923 237.897L366.122 290.906ZM381.91 72.9416L382.434 214.761L331.879 214.948L331.354 73.1286L381.91 72.9416V72.9416Z" fill="white"/>
  </g>
</svg>

