<?xml version="1.0" encoding="utf-8"?>
<!-- Generator: Adobe Illustrator 21.1.0, SVG Export Plug-In . SVG Version: 6.00 Build 0)  -->
<svg version="1.1" id="Calque_1" xmlns="http://www.w3.org/2000/svg" xmlns:xlink="http://www.w3.org/1999/xlink" x="0px" y="0px"
	 viewBox="0 0 27 26" style="enable-background:new 0 0 27 26;" xml:space="preserve">
<style type="text/css">
	.st0{fill:#B4B4B4;}
</style>
<path class="st0" d="M9,16.5c-0.8,0.5-1.7,0.7-2.6,0.4l-5.7,5.5c-0.8,0.8-0.8,2.2,0,3c0.8,0.8,2.2,0.8,3.1,0l5.7-5.5
	c-0.3-0.8-0.2-1.8,0.4-2.5c4,3.5,10.2,3.3,14.1-0.4c4-3.9,4-10.2,0-14C20-1,13.4-1,9.4,2.9C5.6,6.6,5.4,12.6,9,16.5z M8.8,9.9
	c0-4.2,3.5-7.6,7.8-7.6s7.9,3.4,7.9,7.6c0,4.2-3.5,7.6-7.9,7.6C12.4,17.5,8.8,14.1,8.8,9.9z"/>
<path class="st0" d="M16.5,9.9c1.1,0,2-0.9,2-2s-0.9-2-2-2s-2,0.9-2,2S15.4,9.9,16.5,9.9z M18.2,10.4h-0.8c-0.3,0.1-0.6,0.2-1,0.2
	s-0.7-0.1-1-0.2h-0.8c-1,0-1.8,0.8-1.8,1.8v0.2c0,0.4,0.3,0.7,0.7,0.7h5.7c0.4,0,0.7-0.3,0.7-0.7v-0.2C20,11.2,19.2,10.4,18.2,10.4z
	"/>
</svg>
