<svg width="1991" height="2173" viewBox="0 0 1991 2173" fill="none" xmlns="http://www.w3.org/2000/svg">
<rect width="1991" height="2173" fill="black" fill-opacity="0"/>
<path d="M1315.87 484.436H1109.38V439.363H822.242V484.436H602.856V698.527H491.871V1229.15C491.871 1371.2 580.816 1490.96 701.099 1525.69V2173H1289.9V1509.84C1388.68 1462.24 1457.82 1354.37 1457.82 1229.14V1085.15H1499.12V574.581H1315.87V484.436V484.436ZM1258.43 547.117V574.581V1022.48H1109.38V547.117H1258.43ZM879.669 972.481H1021.63V698.527H879.669V502.045H1051.95V1022.48H879.669V972.481V972.481ZM660.284 547.117H822.238V698.527H660.284V547.117ZM1400.39 1229.14C1400.39 1363.72 1300.08 1473.19 1176.78 1473.19V1535.88C1195.84 1535.88 1214.46 1533.78 1232.46 1529.81V2110.31H758.523V1535.48C763.286 1535.74 768.081 1535.88 772.903 1535.88H807.076V1504.53V1504.53V1473.19H803.526H772.903C649.606 1473.19 549.294 1363.71 549.294 1229.14V761.208H602.849H879.669H964.193V909.799H734.479V1087.67C724.738 1086.9 716.078 1086.43 708.849 1086.16L706.874 1148.8C722.436 1149.39 743.508 1150.82 767.377 1154.11C806.162 1159.46 852.367 1169.74 894.481 1189.39C973.335 1226.17 1011.67 1282.28 1011.67 1360.92H1069.1C1069.1 1310.06 1056.93 1268.62 1036.96 1234.8C1098.05 1211.79 1163.09 1205.79 1200.31 1204.4L1198.33 1141.75C1153.29 1143.45 1070.94 1151.4 996.437 1184.48C938.722 1130.38 857.162 1105.84 791.91 1094.78V972.481H822.234V1085.16H1051.94H1109.38H1258.43H1315.86H1400.38L1400.39 1229.14ZM1441.69 637.263V1022.48H1315.87V637.263H1441.69V637.263Z" fill="white"/>
<path d="M1021.64 1691.72H964.212V1975.57H1021.64V1691.72Z" fill="white"/>
<path d="M1024.21 0H966.774V250.251H1024.21V0Z" fill="white"/>
<path d="M1991 1038.61H1754.14V1101.29H1991V1038.61Z" fill="white"/>
<path d="M228.349 1038.61H0V1101.29H228.349V1038.61Z" fill="white"/>
<path d="M1507.65 466.693L1548.26 511.012L1709.07 335.494L1668.47 291.175L1507.65 466.693Z" fill="white"/>
<path d="M482.664 1673.89L442.057 1629.57L281.919 1804.34L322.526 1848.66L482.664 1673.89Z" fill="white"/>
<path d="M1709.01 1804.37L1544.89 1625.24L1504.28 1669.56L1668.4 1848.69L1709.01 1804.37Z" fill="white"/>
<path d="M281.949 335.551L438.79 506.729L479.396 462.41L322.556 291.232L281.949 335.551Z" fill="white"/>
<path d="M1367.65 207.062C1382.31 171.958 1397.47 135.658 1410.67 99.0698L1357.24 76.1006C1344.59 111.161 1329.74 146.697 1315.39 181.066C1298.48 221.543 1281 263.394 1266.22 306.328L1319.98 328.38C1334.08 287.445 1351.14 246.579 1367.65 207.062Z" fill="white"/>
<path d="M1685.82 1361L1663.39 1418.7C1702.62 1436.87 1741.96 1455.54 1780.02 1473.6C1814.01 1489.73 1849.16 1506.41 1884.32 1522.77L1906.85 1465.11C1871.87 1448.83 1836.81 1432.2 1802.92 1416.11C1764.75 1398 1725.29 1379.28 1685.82 1361Z" fill="white"/>
<path d="M293.099 773.249L316.99 716.246C281.798 698.679 244.607 681.605 208.637 665.091C175.269 649.77 140.761 633.931 107.19 617.417L83.5903 674.564C117.826 691.405 152.672 707.401 186.375 722.871C223.581 739.953 258.715 756.085 293.099 773.249Z" fill="white"/>
<path d="M1701.21 797.863C1749.22 777.72 1795.71 757.353 1840.67 737.651C1865.85 726.621 1891.2 715.51 1917.22 704.254L1896.07 645.982C1869.96 657.272 1844.53 668.417 1819.27 679.49C1772.45 700.006 1728.22 719.385 1680.6 739.362L1701.21 797.863Z" fill="white"/>
<path d="M284.19 1344.51C250.288 1357.9 217.865 1372.82 186.511 1387.25C150.716 1403.72 113.708 1420.76 75.0508 1435.17L93.6229 1494.49C134.174 1479.36 172.123 1461.9 208.824 1445.01C239.501 1430.89 271.221 1416.29 303.726 1403.46L284.19 1344.51Z" fill="white"/>
<path d="M743.905 293.555C708.32 205.481 682.717 135.114 660.878 65.3867L606.535 85.6609C628.922 157.153 655.084 229.07 691.354 318.85L743.905 293.555Z" fill="white"/>
</svg>
